<svg xmlns="http://www.w3.org/2000/svg" viewBox="0 0 1000 1000" width="1000" height="1000"><rect x="0" y="0" width="1000" height="1000" fill="#ffffff" /><circle cx="293.1034482758621" cy="17.24137931034483" r="17.24137931034483" fill="#3f4200" /><circle cx="465.5172413793104" cy="17.24137931034483" r="17.24137931034483" fill="#3f4200" /><circle cx="500.00000000000006" cy="17.24137931034483" r="17.24137931034483" fill="#3f4200" /><circle cx="637.9310344827587" cy="17.24137931034483" r="17.24137931034483" fill="#3f4200" /><circle cx="293.1034482758621" cy="51.72413793103449" r="17.24137931034483" fill="#3f4200" /><circle cx="396.55172413793105" cy="51.72413793103449" r="17.24137931034483" fill="#3f4200" /><circle cx="465.5172413793104" cy="51.72413793103449" r="17.24137931034483" fill="#3f4200" /><circle cx="568.9655172413794" cy="51.72413793103449" r="17.24137931034483" fill="#3f4200" /><circle cx="603.4482758620691" cy="51.72413793103449" r="17.24137931034483" fill="#3f4200" /><circle cx="672.4137931034484" cy="51.72413793103449" r="17.24137931034483" fill="#3f4200" /><circle cx="293.1034482758621" cy="86.20689655172414" r="17.24137931034483" fill="#3f4200" /><circle cx="327.58620689655174" cy="86.20689655172414" r="17.24137931034483" fill="#3f4200" /><circle cx="465.5172413793104" cy="86.20689655172414" r="17.24137931034483" fill="#3f4200" /><circle cx="327.58620689655174" cy="120.68965517241381" r="17.24137931034483" fill="#3f4200" /><circle cx="362.0689655172414" cy="120.68965517241381" r="17.24137931034483" fill="#3f4200" /><circle cx="396.55172413793105" cy="120.68965517241381" r="17.24137931034483" fill="#3f4200" /><circle cx="431.03448275862075" cy="120.68965517241381" r="17.24137931034483" fill="#3f4200" /><circle cx="465.5172413793104" cy="120.68965517241381" r="17.24137931034483" fill="#3f4200" /><circle cx="534.4827586206898" cy="120.68965517241381" r="17.24137931034483" fill="#3f4200" /><circle cx="568.9655172413794" cy="120.68965517241381" r="17.24137931034483" fill="#3f4200" /><circle cx="603.4482758620691" cy="120.68965517241381" r="17.24137931034483" fill="#3f4200" /><circle cx="706.896551724138" cy="120.68965517241381" r="17.24137931034483" fill="#3f4200" /><circle cx="293.1034482758621" cy="155.17241379310346" r="17.24137931034483" fill="#3f4200" /><circle cx="327.58620689655174" cy="155.17241379310346" r="17.24137931034483" fill="#3f4200" /><circle cx="362.0689655172414" cy="155.17241379310346" r="17.24137931034483" fill="#3f4200" /><circle cx="465.5172413793104" cy="155.17241379310346" r="17.24137931034483" fill="#3f4200" /><circle cx="568.9655172413794" cy="155.17241379310346" r="17.24137931034483" fill="#3f4200" /><circle cx="637.9310344827587" cy="155.17241379310346" r="17.24137931034483" fill="#3f4200" /><circle cx="672.4137931034484" cy="155.17241379310346" r="17.24137931034483" fill="#3f4200" /><circle cx="327.58620689655174" cy="189.6551724137931" r="17.24137931034483" fill="#3f4200" /><circle cx="362.0689655172414" cy="189.6551724137931" r="17.24137931034483" fill="#3f4200" /><circle cx="396.55172413793105" cy="189.6551724137931" r="17.24137931034483" fill="#3f4200" /><circle cx="431.03448275862075" cy="189.6551724137931" r="17.24137931034483" fill="#3f4200" /><circle cx="568.9655172413794" cy="189.6551724137931" r="17.24137931034483" fill="#3f4200" /><circle cx="603.4482758620691" cy="189.6551724137931" r="17.24137931034483" fill="#3f4200" /><circle cx="293.1034482758621" cy="224.1379310344828" r="17.24137931034483" fill="#3f4200" /><circle cx="362.0689655172414" cy="224.1379310344828" r="17.24137931034483" fill="#3f4200" /><circle cx="431.03448275862075" cy="224.1379310344828" r="17.24137931034483" fill="#3f4200" /><circle cx="500.00000000000006" cy="224.1379310344828" r="17.24137931034483" fill="#3f4200" /><circle cx="568.9655172413794" cy="224.1379310344828" r="17.24137931034483" fill="#3f4200" /><circle cx="637.9310344827587" cy="224.1379310344828" r="17.24137931034483" fill="#3f4200" /><circle cx="706.896551724138" cy="224.1379310344828" r="17.24137931034483" fill="#3f4200" /><circle cx="327.58620689655174" cy="258.62068965517244" r="17.24137931034483" fill="#3f4200" /><circle cx="362.0689655172414" cy="258.62068965517244" r="17.24137931034483" fill="#3f4200" /><circle cx="431.03448275862075" cy="258.62068965517244" r="17.24137931034483" fill="#3f4200" /><circle cx="465.5172413793104" cy="258.62068965517244" r="17.24137931034483" fill="#3f4200" /><circle cx="534.4827586206898" cy="258.62068965517244" r="17.24137931034483" fill="#3f4200" /><circle cx="17.24137931034483" cy="293.1034482758621" r="17.24137931034483" fill="#3f4200" /><circle cx="120.68965517241381" cy="293.1034482758621" r="17.24137931034483" fill="#3f4200" /><circle cx="155.17241379310346" cy="293.1034482758621" r="17.24137931034483" fill="#3f4200" /><circle cx="189.6551724137931" cy="293.1034482758621" r="17.24137931034483" fill="#3f4200" /><circle cx="224.1379310344828" cy="293.1034482758621" r="17.24137931034483" fill="#3f4200" /><circle cx="258.62068965517244" cy="293.1034482758621" r="17.24137931034483" fill="#3f4200" /><circle cx="293.1034482758621" cy="293.1034482758621" r="17.24137931034483" fill="#3f4200" /><circle cx="396.55172413793105" cy="293.1034482758621" r="17.24137931034483" fill="#3f4200" /><circle cx="431.03448275862075" cy="293.1034482758621" r="17.24137931034483" fill="#3f4200" /><circle cx="534.4827586206898" cy="293.1034482758621" r="17.24137931034483" fill="#3f4200" /><circle cx="568.9655172413794" cy="293.1034482758621" r="17.24137931034483" fill="#3f4200" /><circle cx="603.4482758620691" cy="293.1034482758621" r="17.24137931034483" fill="#3f4200" /><circle cx="637.9310344827587" cy="293.1034482758621" r="17.24137931034483" fill="#3f4200" /><circle cx="741.3793103448277" cy="293.1034482758621" r="17.24137931034483" fill="#3f4200" /><circle cx="844.8275862068967" cy="293.1034482758621" r="17.24137931034483" fill="#3f4200" /><circle cx="913.793103448276" cy="293.1034482758621" r="17.24137931034483" fill="#3f4200" /><circle cx="948.2758620689657" cy="293.1034482758621" r="17.24137931034483" fill="#3f4200" /><circle cx="982.7586206896553" cy="293.1034482758621" r="17.24137931034483" fill="#3f4200" /><circle cx="17.24137931034483" cy="327.58620689655174" r="17.24137931034483" fill="#3f4200" /><circle cx="86.20689655172414" cy="327.58620689655174" r="17.24137931034483" fill="#3f4200" /><circle cx="155.17241379310346" cy="327.58620689655174" r="17.24137931034483" fill="#3f4200" /><circle cx="293.1034482758621" cy="327.58620689655174" r="17.24137931034483" fill="#3f4200" /><circle cx="327.58620689655174" cy="327.58620689655174" r="17.24137931034483" fill="#3f4200" /><circle cx="362.0689655172414" cy="327.58620689655174" r="17.24137931034483" fill="#3f4200" /><circle cx="465.5172413793104" cy="327.58620689655174" r="17.24137931034483" fill="#3f4200" /><circle cx="534.4827586206898" cy="327.58620689655174" r="17.24137931034483" fill="#3f4200" /><circle cx="603.4482758620691" cy="327.58620689655174" r="17.24137931034483" fill="#3f4200" /><circle cx="672.4137931034484" cy="327.58620689655174" r="17.24137931034483" fill="#3f4200" /><circle cx="706.896551724138" cy="327.58620689655174" r="17.24137931034483" fill="#3f4200" /><circle cx="741.3793103448277" cy="327.58620689655174" r="17.24137931034483" fill="#3f4200" /><circle cx="810.344827586207" cy="327.58620689655174" r="17.24137931034483" fill="#3f4200" /><circle cx="844.8275862068967" cy="327.58620689655174" r="17.24137931034483" fill="#3f4200" /><circle cx="879.3103448275864" cy="327.58620689655174" r="17.24137931034483" fill="#3f4200" /><circle cx="17.24137931034483" cy="362.0689655172414" r="17.24137931034483" fill="#3f4200" /><circle cx="51.72413793103449" cy="362.0689655172414" r="17.24137931034483" fill="#3f4200" /><circle cx="86.20689655172414" cy="362.0689655172414" r="17.24137931034483" fill="#3f4200" /><circle cx="120.68965517241381" cy="362.0689655172414" r="17.24137931034483" fill="#3f4200" /><circle cx="155.17241379310346" cy="362.0689655172414" r="17.24137931034483" fill="#3f4200" /><circle cx="224.1379310344828" cy="362.0689655172414" r="17.24137931034483" fill="#3f4200" /><circle cx="431.03448275862075" cy="362.0689655172414" r="17.24137931034483" fill="#3f4200" /><circle cx="534.4827586206898" cy="362.0689655172414" r="17.24137931034483" fill="#3f4200" /><circle cx="706.896551724138" cy="362.0689655172414" r="17.24137931034483" fill="#3f4200" /><circle cx="844.8275862068967" cy="362.0689655172414" r="17.24137931034483" fill="#3f4200" /><circle cx="913.793103448276" cy="362.0689655172414" r="17.24137931034483" fill="#3f4200" /><circle cx="17.24137931034483" cy="396.55172413793105" r="17.24137931034483" fill="#3f4200" /><circle cx="86.20689655172414" cy="396.55172413793105" r="17.24137931034483" fill="#3f4200" /><circle cx="258.62068965517244" cy="396.55172413793105" r="17.24137931034483" fill="#3f4200" /><circle cx="293.1034482758621" cy="396.55172413793105" r="17.24137931034483" fill="#3f4200" /><circle cx="396.55172413793105" cy="396.55172413793105" r="17.24137931034483" fill="#3f4200" /><circle cx="431.03448275862075" cy="396.55172413793105" r="17.24137931034483" fill="#3f4200" /><circle cx="500.00000000000006" cy="396.55172413793105" r="17.24137931034483" fill="#3f4200" /><circle cx="534.4827586206898" cy="396.55172413793105" r="17.24137931034483" fill="#3f4200" /><circle cx="603.4482758620691" cy="396.55172413793105" r="17.24137931034483" fill="#3f4200" /><circle cx="706.896551724138" cy="396.55172413793105" r="17.24137931034483" fill="#3f4200" /><circle cx="775.8620689655173" cy="396.55172413793105" r="17.24137931034483" fill="#3f4200" /><circle cx="810.344827586207" cy="396.55172413793105" r="17.24137931034483" fill="#3f4200" /><circle cx="844.8275862068967" cy="396.55172413793105" r="17.24137931034483" fill="#3f4200" /><circle cx="879.3103448275864" cy="396.55172413793105" r="17.24137931034483" fill="#3f4200" /><circle cx="948.2758620689657" cy="396.55172413793105" r="17.24137931034483" fill="#3f4200" /><circle cx="982.7586206896553" cy="396.55172413793105" r="17.24137931034483" fill="#3f4200" /><circle cx="120.68965517241381" cy="431.03448275862075" r="17.24137931034483" fill="#3f4200" /><circle cx="155.17241379310346" cy="431.03448275862075" r="17.24137931034483" fill="#3f4200" /><circle cx="224.1379310344828" cy="431.03448275862075" r="17.24137931034483" fill="#3f4200" /><circle cx="258.62068965517244" cy="431.03448275862075" r="17.24137931034483" fill="#3f4200" /><circle cx="293.1034482758621" cy="431.03448275862075" r="17.24137931034483" fill="#3f4200" /><circle cx="327.58620689655174" cy="431.03448275862075" r="17.24137931034483" fill="#3f4200" /><circle cx="362.0689655172414" cy="431.03448275862075" r="17.24137931034483" fill="#3f4200" /><circle cx="431.03448275862075" cy="431.03448275862075" r="17.24137931034483" fill="#3f4200" /><circle cx="465.5172413793104" cy="431.03448275862075" r="17.24137931034483" fill="#3f4200" /><circle cx="500.00000000000006" cy="431.03448275862075" r="17.24137931034483" fill="#3f4200" /><circle cx="534.4827586206898" cy="431.03448275862075" r="17.24137931034483" fill="#3f4200" /><circle cx="568.9655172413794" cy="431.03448275862075" r="17.24137931034483" fill="#3f4200" /><circle cx="706.896551724138" cy="431.03448275862075" r="17.24137931034483" fill="#3f4200" /><circle cx="775.8620689655173" cy="431.03448275862075" r="17.24137931034483" fill="#3f4200" /><circle cx="810.344827586207" cy="431.03448275862075" r="17.24137931034483" fill="#3f4200" /><circle cx="948.2758620689657" cy="431.03448275862075" r="17.24137931034483" fill="#3f4200" /><circle cx="17.24137931034483" cy="465.5172413793104" r="17.24137931034483" fill="#3f4200" /><circle cx="51.72413793103449" cy="465.5172413793104" r="17.24137931034483" fill="#3f4200" /><circle cx="155.17241379310346" cy="465.5172413793104" r="17.24137931034483" fill="#3f4200" /><circle cx="189.6551724137931" cy="465.5172413793104" r="17.24137931034483" fill="#3f4200" /><circle cx="258.62068965517244" cy="465.5172413793104" r="17.24137931034483" fill="#3f4200" /><circle cx="396.55172413793105" cy="465.5172413793104" r="17.24137931034483" fill="#3f4200" /><circle cx="500.00000000000006" cy="465.5172413793104" r="17.24137931034483" fill="#3f4200" /><circle cx="534.4827586206898" cy="465.5172413793104" r="17.24137931034483" fill="#3f4200" /><circle cx="775.8620689655173" cy="465.5172413793104" r="17.24137931034483" fill="#3f4200" /><circle cx="810.344827586207" cy="465.5172413793104" r="17.24137931034483" fill="#3f4200" /><circle cx="844.8275862068967" cy="465.5172413793104" r="17.24137931034483" fill="#3f4200" /><circle cx="913.793103448276" cy="465.5172413793104" r="17.24137931034483" fill="#3f4200" /><circle cx="982.7586206896553" cy="465.5172413793104" r="17.24137931034483" fill="#3f4200" /><circle cx="17.24137931034483" cy="500.00000000000006" r="17.24137931034483" fill="#3f4200" /><circle cx="189.6551724137931" cy="500.00000000000006" r="17.24137931034483" fill="#3f4200" /><circle cx="224.1379310344828" cy="500.00000000000006" r="17.24137931034483" fill="#3f4200" /><circle cx="258.62068965517244" cy="500.00000000000006" r="17.24137931034483" fill="#3f4200" /><circle cx="327.58620689655174" cy="500.00000000000006" r="17.24137931034483" fill="#3f4200" /><circle cx="362.0689655172414" cy="500.00000000000006" r="17.24137931034483" fill="#3f4200" /><circle cx="396.55172413793105" cy="500.00000000000006" r="17.24137931034483" fill="#3f4200" /><circle cx="500.00000000000006" cy="500.00000000000006" r="17.24137931034483" fill="#3f4200" /><circle cx="534.4827586206898" cy="500.00000000000006" r="17.24137931034483" fill="#3f4200" /><circle cx="603.4482758620691" cy="500.00000000000006" r="17.24137931034483" fill="#3f4200" /><circle cx="637.9310344827587" cy="500.00000000000006" r="17.24137931034483" fill="#3f4200" /><circle cx="672.4137931034484" cy="500.00000000000006" r="17.24137931034483" fill="#3f4200" /><circle cx="706.896551724138" cy="500.00000000000006" r="17.24137931034483" fill="#3f4200" /><circle cx="741.3793103448277" cy="500.00000000000006" r="17.24137931034483" fill="#3f4200" /><circle cx="844.8275862068967" cy="500.00000000000006" r="17.24137931034483" fill="#3f4200" /><circle cx="879.3103448275864" cy="500.00000000000006" r="17.24137931034483" fill="#3f4200" /><circle cx="982.7586206896553" cy="500.00000000000006" r="17.24137931034483" fill="#3f4200" /><circle cx="51.72413793103449" cy="534.4827586206898" r="17.24137931034483" fill="#3f4200" /><circle cx="86.20689655172414" cy="534.4827586206898" r="17.24137931034483" fill="#3f4200" /><circle cx="120.68965517241381" cy="534.4827586206898" r="17.24137931034483" fill="#3f4200" /><circle cx="189.6551724137931" cy="534.4827586206898" r="17.24137931034483" fill="#3f4200" /><circle cx="293.1034482758621" cy="534.4827586206898" r="17.24137931034483" fill="#3f4200" /><circle cx="327.58620689655174" cy="534.4827586206898" r="17.24137931034483" fill="#3f4200" /><circle cx="362.0689655172414" cy="534.4827586206898" r="17.24137931034483" fill="#3f4200" /><circle cx="396.55172413793105" cy="534.4827586206898" r="17.24137931034483" fill="#3f4200" /><circle cx="465.5172413793104" cy="534.4827586206898" r="17.24137931034483" fill="#3f4200" /><circle cx="500.00000000000006" cy="534.4827586206898" r="17.24137931034483" fill="#3f4200" /><circle cx="706.896551724138" cy="534.4827586206898" r="17.24137931034483" fill="#3f4200" /><circle cx="741.3793103448277" cy="534.4827586206898" r="17.24137931034483" fill="#3f4200" /><circle cx="775.8620689655173" cy="534.4827586206898" r="17.24137931034483" fill="#3f4200" /><circle cx="810.344827586207" cy="534.4827586206898" r="17.24137931034483" fill="#3f4200" /><circle cx="844.8275862068967" cy="534.4827586206898" r="17.24137931034483" fill="#3f4200" /><circle cx="879.3103448275864" cy="534.4827586206898" r="17.24137931034483" fill="#3f4200" /><circle cx="913.793103448276" cy="534.4827586206898" r="17.24137931034483" fill="#3f4200" /><circle cx="948.2758620689657" cy="534.4827586206898" r="17.24137931034483" fill="#3f4200" /><circle cx="982.7586206896553" cy="534.4827586206898" r="17.24137931034483" fill="#3f4200" /><circle cx="155.17241379310346" cy="568.9655172413794" r="17.24137931034483" fill="#3f4200" /><circle cx="189.6551724137931" cy="568.9655172413794" r="17.24137931034483" fill="#3f4200" /><circle cx="224.1379310344828" cy="568.9655172413794" r="17.24137931034483" fill="#3f4200" /><circle cx="258.62068965517244" cy="568.9655172413794" r="17.24137931034483" fill="#3f4200" /><circle cx="568.9655172413794" cy="568.9655172413794" r="17.24137931034483" fill="#3f4200" /><circle cx="672.4137931034484" cy="568.9655172413794" r="17.24137931034483" fill="#3f4200" /><circle cx="706.896551724138" cy="568.9655172413794" r="17.24137931034483" fill="#3f4200" /><circle cx="810.344827586207" cy="568.9655172413794" r="17.24137931034483" fill="#3f4200" /><circle cx="948.2758620689657" cy="568.9655172413794" r="17.24137931034483" fill="#3f4200" /><circle cx="17.24137931034483" cy="603.4482758620691" r="17.24137931034483" fill="#3f4200" /><circle cx="86.20689655172414" cy="603.4482758620691" r="17.24137931034483" fill="#3f4200" /><circle cx="120.68965517241381" cy="603.4482758620691" r="17.24137931034483" fill="#3f4200" /><circle cx="189.6551724137931" cy="603.4482758620691" r="17.24137931034483" fill="#3f4200" /><circle cx="327.58620689655174" cy="603.4482758620691" r="17.24137931034483" fill="#3f4200" /><circle cx="362.0689655172414" cy="603.4482758620691" r="17.24137931034483" fill="#3f4200" /><circle cx="396.55172413793105" cy="603.4482758620691" r="17.24137931034483" fill="#3f4200" /><circle cx="534.4827586206898" cy="603.4482758620691" r="17.24137931034483" fill="#3f4200" /><circle cx="568.9655172413794" cy="603.4482758620691" r="17.24137931034483" fill="#3f4200" /><circle cx="603.4482758620691" cy="603.4482758620691" r="17.24137931034483" fill="#3f4200" /><circle cx="672.4137931034484" cy="603.4482758620691" r="17.24137931034483" fill="#3f4200" /><circle cx="706.896551724138" cy="603.4482758620691" r="17.24137931034483" fill="#3f4200" /><circle cx="775.8620689655173" cy="603.4482758620691" r="17.24137931034483" fill="#3f4200" /><circle cx="844.8275862068967" cy="603.4482758620691" r="17.24137931034483" fill="#3f4200" /><circle cx="879.3103448275864" cy="603.4482758620691" r="17.24137931034483" fill="#3f4200" /><circle cx="913.793103448276" cy="603.4482758620691" r="17.24137931034483" fill="#3f4200" /><circle cx="17.24137931034483" cy="637.9310344827587" r="17.24137931034483" fill="#3f4200" /><circle cx="51.72413793103449" cy="637.9310344827587" r="17.24137931034483" fill="#3f4200" /><circle cx="120.68965517241381" cy="637.9310344827587" r="17.24137931034483" fill="#3f4200" /><circle cx="155.17241379310346" cy="637.9310344827587" r="17.24137931034483" fill="#3f4200" /><circle cx="189.6551724137931" cy="637.9310344827587" r="17.24137931034483" fill="#3f4200" /><circle cx="224.1379310344828" cy="637.9310344827587" r="17.24137931034483" fill="#3f4200" /><circle cx="293.1034482758621" cy="637.9310344827587" r="17.24137931034483" fill="#3f4200" /><circle cx="327.58620689655174" cy="637.9310344827587" r="17.24137931034483" fill="#3f4200" /><circle cx="396.55172413793105" cy="637.9310344827587" r="17.24137931034483" fill="#3f4200" /><circle cx="465.5172413793104" cy="637.9310344827587" r="17.24137931034483" fill="#3f4200" /><circle cx="500.00000000000006" cy="637.9310344827587" r="17.24137931034483" fill="#3f4200" /><circle cx="534.4827586206898" cy="637.9310344827587" r="17.24137931034483" fill="#3f4200" /><circle cx="568.9655172413794" cy="637.9310344827587" r="17.24137931034483" fill="#3f4200" /><circle cx="603.4482758620691" cy="637.9310344827587" r="17.24137931034483" fill="#3f4200" /><circle cx="672.4137931034484" cy="637.9310344827587" r="17.24137931034483" fill="#3f4200" /><circle cx="741.3793103448277" cy="637.9310344827587" r="17.24137931034483" fill="#3f4200" /><circle cx="775.8620689655173" cy="637.9310344827587" r="17.24137931034483" fill="#3f4200" /><circle cx="844.8275862068967" cy="637.9310344827587" r="17.24137931034483" fill="#3f4200" /><circle cx="982.7586206896553" cy="637.9310344827587" r="17.24137931034483" fill="#3f4200" /><circle cx="17.24137931034483" cy="672.4137931034484" r="17.24137931034483" fill="#3f4200" /><circle cx="51.72413793103449" cy="672.4137931034484" r="17.24137931034483" fill="#3f4200" /><circle cx="86.20689655172414" cy="672.4137931034484" r="17.24137931034483" fill="#3f4200" /><circle cx="155.17241379310346" cy="672.4137931034484" r="17.24137931034483" fill="#3f4200" /><circle cx="189.6551724137931" cy="672.4137931034484" r="17.24137931034483" fill="#3f4200" /><circle cx="258.62068965517244" cy="672.4137931034484" r="17.24137931034483" fill="#3f4200" /><circle cx="293.1034482758621" cy="672.4137931034484" r="17.24137931034483" fill="#3f4200" /><circle cx="327.58620689655174" cy="672.4137931034484" r="17.24137931034483" fill="#3f4200" /><circle cx="396.55172413793105" cy="672.4137931034484" r="17.24137931034483" fill="#3f4200" /><circle cx="431.03448275862075" cy="672.4137931034484" r="17.24137931034483" fill="#3f4200" /><circle cx="465.5172413793104" cy="672.4137931034484" r="17.24137931034483" fill="#3f4200" /><circle cx="568.9655172413794" cy="672.4137931034484" r="17.24137931034483" fill="#3f4200" /><circle cx="672.4137931034484" cy="672.4137931034484" r="17.24137931034483" fill="#3f4200" /><circle cx="706.896551724138" cy="672.4137931034484" r="17.24137931034483" fill="#3f4200" /><circle cx="844.8275862068967" cy="672.4137931034484" r="17.24137931034483" fill="#3f4200" /><circle cx="879.3103448275864" cy="672.4137931034484" r="17.24137931034483" fill="#3f4200" /><circle cx="913.793103448276" cy="672.4137931034484" r="17.24137931034483" fill="#3f4200" /><circle cx="948.2758620689657" cy="672.4137931034484" r="17.24137931034483" fill="#3f4200" /><circle cx="17.24137931034483" cy="706.896551724138" r="17.24137931034483" fill="#3f4200" /><circle cx="51.72413793103449" cy="706.896551724138" r="17.24137931034483" fill="#3f4200" /><circle cx="86.20689655172414" cy="706.896551724138" r="17.24137931034483" fill="#3f4200" /><circle cx="120.68965517241381" cy="706.896551724138" r="17.24137931034483" fill="#3f4200" /><circle cx="155.17241379310346" cy="706.896551724138" r="17.24137931034483" fill="#3f4200" /><circle cx="224.1379310344828" cy="706.896551724138" r="17.24137931034483" fill="#3f4200" /><circle cx="258.62068965517244" cy="706.896551724138" r="17.24137931034483" fill="#3f4200" /><circle cx="362.0689655172414" cy="706.896551724138" r="17.24137931034483" fill="#3f4200" /><circle cx="431.03448275862075" cy="706.896551724138" r="17.24137931034483" fill="#3f4200" /><circle cx="465.5172413793104" cy="706.896551724138" r="17.24137931034483" fill="#3f4200" /><circle cx="534.4827586206898" cy="706.896551724138" r="17.24137931034483" fill="#3f4200" /><circle cx="603.4482758620691" cy="706.896551724138" r="17.24137931034483" fill="#3f4200" /><circle cx="672.4137931034484" cy="706.896551724138" r="17.24137931034483" fill="#3f4200" /><circle cx="706.896551724138" cy="706.896551724138" r="17.24137931034483" fill="#3f4200" /><circle cx="741.3793103448277" cy="706.896551724138" r="17.24137931034483" fill="#3f4200" /><circle cx="775.8620689655173" cy="706.896551724138" r="17.24137931034483" fill="#3f4200" /><circle cx="810.344827586207" cy="706.896551724138" r="17.24137931034483" fill="#3f4200" /><circle cx="844.8275862068967" cy="706.896551724138" r="17.24137931034483" fill="#3f4200" /><circle cx="913.793103448276" cy="706.896551724138" r="17.24137931034483" fill="#3f4200" /><circle cx="293.1034482758621" cy="741.3793103448277" r="17.24137931034483" fill="#3f4200" /><circle cx="362.0689655172414" cy="741.3793103448277" r="17.24137931034483" fill="#3f4200" /><circle cx="396.55172413793105" cy="741.3793103448277" r="17.24137931034483" fill="#3f4200" /><circle cx="465.5172413793104" cy="741.3793103448277" r="17.24137931034483" fill="#3f4200" /><circle cx="534.4827586206898" cy="741.3793103448277" r="17.24137931034483" fill="#3f4200" /><circle cx="637.9310344827587" cy="741.3793103448277" r="17.24137931034483" fill="#3f4200" /><circle cx="706.896551724138" cy="741.3793103448277" r="17.24137931034483" fill="#3f4200" /><circle cx="844.8275862068967" cy="741.3793103448277" r="17.24137931034483" fill="#3f4200" /><circle cx="293.1034482758621" cy="775.8620689655173" r="17.24137931034483" fill="#3f4200" /><circle cx="362.0689655172414" cy="775.8620689655173" r="17.24137931034483" fill="#3f4200" /><circle cx="465.5172413793104" cy="775.8620689655173" r="17.24137931034483" fill="#3f4200" /><circle cx="534.4827586206898" cy="775.8620689655173" r="17.24137931034483" fill="#3f4200" /><circle cx="568.9655172413794" cy="775.8620689655173" r="17.24137931034483" fill="#3f4200" /><circle cx="637.9310344827587" cy="775.8620689655173" r="17.24137931034483" fill="#3f4200" /><circle cx="672.4137931034484" cy="775.8620689655173" r="17.24137931034483" fill="#3f4200" /><circle cx="706.896551724138" cy="775.8620689655173" r="17.24137931034483" fill="#3f4200" /><circle cx="775.8620689655173" cy="775.8620689655173" r="17.24137931034483" fill="#3f4200" /><circle cx="844.8275862068967" cy="775.8620689655173" r="17.24137931034483" fill="#3f4200" /><circle cx="293.1034482758621" cy="810.344827586207" r="17.24137931034483" fill="#3f4200" /><circle cx="327.58620689655174" cy="810.344827586207" r="17.24137931034483" fill="#3f4200" /><circle cx="431.03448275862075" cy="810.344827586207" r="17.24137931034483" fill="#3f4200" /><circle cx="465.5172413793104" cy="810.344827586207" r="17.24137931034483" fill="#3f4200" /><circle cx="534.4827586206898" cy="810.344827586207" r="17.24137931034483" fill="#3f4200" /><circle cx="568.9655172413794" cy="810.344827586207" r="17.24137931034483" fill="#3f4200" /><circle cx="603.4482758620691" cy="810.344827586207" r="17.24137931034483" fill="#3f4200" /><circle cx="637.9310344827587" cy="810.344827586207" r="17.24137931034483" fill="#3f4200" /><circle cx="672.4137931034484" cy="810.344827586207" r="17.24137931034483" fill="#3f4200" /><circle cx="706.896551724138" cy="810.344827586207" r="17.24137931034483" fill="#3f4200" /><circle cx="844.8275862068967" cy="810.344827586207" r="17.24137931034483" fill="#3f4200" /><circle cx="879.3103448275864" cy="810.344827586207" r="17.24137931034483" fill="#3f4200" /><circle cx="948.2758620689657" cy="810.344827586207" r="17.24137931034483" fill="#3f4200" /><circle cx="293.1034482758621" cy="844.8275862068967" r="17.24137931034483" fill="#3f4200" /><circle cx="327.58620689655174" cy="844.8275862068967" r="17.24137931034483" fill="#3f4200" /><circle cx="362.0689655172414" cy="844.8275862068967" r="17.24137931034483" fill="#3f4200" /><circle cx="396.55172413793105" cy="844.8275862068967" r="17.24137931034483" fill="#3f4200" /><circle cx="431.03448275862075" cy="844.8275862068967" r="17.24137931034483" fill="#3f4200" /><circle cx="465.5172413793104" cy="844.8275862068967" r="17.24137931034483" fill="#3f4200" /><circle cx="534.4827586206898" cy="844.8275862068967" r="17.24137931034483" fill="#3f4200" /><circle cx="568.9655172413794" cy="844.8275862068967" r="17.24137931034483" fill="#3f4200" /><circle cx="672.4137931034484" cy="844.8275862068967" r="17.24137931034483" fill="#3f4200" /><circle cx="706.896551724138" cy="844.8275862068967" r="17.24137931034483" fill="#3f4200" /><circle cx="741.3793103448277" cy="844.8275862068967" r="17.24137931034483" fill="#3f4200" /><circle cx="775.8620689655173" cy="844.8275862068967" r="17.24137931034483" fill="#3f4200" /><circle cx="810.344827586207" cy="844.8275862068967" r="17.24137931034483" fill="#3f4200" /><circle cx="844.8275862068967" cy="844.8275862068967" r="17.24137931034483" fill="#3f4200" /><circle cx="982.7586206896553" cy="844.8275862068967" r="17.24137931034483" fill="#3f4200" /><circle cx="293.1034482758621" cy="879.3103448275864" r="17.24137931034483" fill="#3f4200" /><circle cx="362.0689655172414" cy="879.3103448275864" r="17.24137931034483" fill="#3f4200" /><circle cx="396.55172413793105" cy="879.3103448275864" r="17.24137931034483" fill="#3f4200" /><circle cx="431.03448275862075" cy="879.3103448275864" r="17.24137931034483" fill="#3f4200" /><circle cx="465.5172413793104" cy="879.3103448275864" r="17.24137931034483" fill="#3f4200" /><circle cx="500.00000000000006" cy="879.3103448275864" r="17.24137931034483" fill="#3f4200" /><circle cx="534.4827586206898" cy="879.3103448275864" r="17.24137931034483" fill="#3f4200" /><circle cx="568.9655172413794" cy="879.3103448275864" r="17.24137931034483" fill="#3f4200" /><circle cx="603.4482758620691" cy="879.3103448275864" r="17.24137931034483" fill="#3f4200" /><circle cx="637.9310344827587" cy="879.3103448275864" r="17.24137931034483" fill="#3f4200" /><circle cx="706.896551724138" cy="879.3103448275864" r="17.24137931034483" fill="#3f4200" /><circle cx="741.3793103448277" cy="879.3103448275864" r="17.24137931034483" fill="#3f4200" /><circle cx="879.3103448275864" cy="879.3103448275864" r="17.24137931034483" fill="#3f4200" /><circle cx="913.793103448276" cy="879.3103448275864" r="17.24137931034483" fill="#3f4200" /><circle cx="982.7586206896553" cy="879.3103448275864" r="17.24137931034483" fill="#3f4200" /><circle cx="396.55172413793105" cy="913.793103448276" r="17.24137931034483" fill="#3f4200" /><circle cx="431.03448275862075" cy="913.793103448276" r="17.24137931034483" fill="#3f4200" /><circle cx="500.00000000000006" cy="913.793103448276" r="17.24137931034483" fill="#3f4200" /><circle cx="534.4827586206898" cy="913.793103448276" r="17.24137931034483" fill="#3f4200" /><circle cx="603.4482758620691" cy="913.793103448276" r="17.24137931034483" fill="#3f4200" /><circle cx="637.9310344827587" cy="913.793103448276" r="17.24137931034483" fill="#3f4200" /><circle cx="706.896551724138" cy="913.793103448276" r="17.24137931034483" fill="#3f4200" /><circle cx="741.3793103448277" cy="913.793103448276" r="17.24137931034483" fill="#3f4200" /><circle cx="810.344827586207" cy="913.793103448276" r="17.24137931034483" fill="#3f4200" /><circle cx="844.8275862068967" cy="913.793103448276" r="17.24137931034483" fill="#3f4200" /><circle cx="913.793103448276" cy="913.793103448276" r="17.24137931034483" fill="#3f4200" /><circle cx="948.2758620689657" cy="913.793103448276" r="17.24137931034483" fill="#3f4200" /><circle cx="982.7586206896553" cy="913.793103448276" r="17.24137931034483" fill="#3f4200" /><circle cx="327.58620689655174" cy="948.2758620689657" r="17.24137931034483" fill="#3f4200" /><circle cx="500.00000000000006" cy="948.2758620689657" r="17.24137931034483" fill="#3f4200" /><circle cx="637.9310344827587" cy="948.2758620689657" r="17.24137931034483" fill="#3f4200" /><circle cx="741.3793103448277" cy="948.2758620689657" r="17.24137931034483" fill="#3f4200" /><circle cx="775.8620689655173" cy="948.2758620689657" r="17.24137931034483" fill="#3f4200" /><circle cx="810.344827586207" cy="948.2758620689657" r="17.24137931034483" fill="#3f4200" /><circle cx="844.8275862068967" cy="948.2758620689657" r="17.24137931034483" fill="#3f4200" /><circle cx="879.3103448275864" cy="948.2758620689657" r="17.24137931034483" fill="#3f4200" /><circle cx="913.793103448276" cy="948.2758620689657" r="17.24137931034483" fill="#3f4200" /><circle cx="982.7586206896553" cy="948.2758620689657" r="17.24137931034483" fill="#3f4200" /><circle cx="293.1034482758621" cy="982.7586206896553" r="17.24137931034483" fill="#3f4200" /><circle cx="362.0689655172414" cy="982.7586206896553" r="17.24137931034483" fill="#3f4200" /><circle cx="534.4827586206898" cy="982.7586206896553" r="17.24137931034483" fill="#3f4200" /><circle cx="672.4137931034484" cy="982.7586206896553" r="17.24137931034483" fill="#3f4200" /><circle cx="706.896551724138" cy="982.7586206896553" r="17.24137931034483" fill="#3f4200" /><circle cx="775.8620689655173" cy="982.7586206896553" r="17.24137931034483" fill="#3f4200" /><circle cx="810.344827586207" cy="982.7586206896553" r="17.24137931034483" fill="#3f4200" /><circle cx="844.8275862068967" cy="982.7586206896553" r="17.24137931034483" fill="#3f4200" /><circle cx="120.68965517241381" cy="120.68965517241381" r="120.68965517241381" fill="#3f4200" /><circle cx="120.68965517241381" cy="120.68965517241381" r="86.20689655172416" fill="#ffffff" /><circle cx="120.68965517241381" cy="120.68965517241381" r="51.72413793103449" fill="#3f4200" /><circle cx="879.3103448275863" cy="120.68965517241381" r="120.68965517241381" fill="#3f4200" /><circle cx="879.3103448275863" cy="120.68965517241381" r="86.20689655172416" fill="#ffffff" /><circle cx="879.3103448275863" cy="120.68965517241381" r="51.72413793103449" fill="#3f4200" /><circle cx="120.68965517241381" cy="879.3103448275863" r="120.68965517241381" fill="#3f4200" /><circle cx="120.68965517241381" cy="879.3103448275863" r="86.20689655172416" fill="#ffffff" /><circle cx="120.68965517241381" cy="879.3103448275863" r="51.72413793103449" fill="#3f4200" /></svg>